<svg width="123" height="126" viewBox="0 0 123 126" fill="none" xmlns="http://www.w3.org/2000/svg">
    <circle cx="63.5" cy="74.5" r="51.5" fill="#9CDDEB" />
    <path
        d="M55.024 65.336L0.751999 59.576H55.92C55.4933 61.2827 55.1947 63.2027 55.024 65.336ZM59.376 47.288L57.456 52.92L4.336 47.288H59.376ZM55.024 71.864C55.1947 74.168 55.536 76.088 56.048 77.624L1.904 71.864H55.024ZM72.944 89.912L5.232 84.152H60.4C63.216 86.8827 67.3973 88.8027 72.944 89.912ZM68.976 35C67.0133 36.28 65.136 38.0293 63.344 40.248L13.936 35H68.976ZM3.056 96.44H50.928L49.008 102.072L3.056 96.44ZM0.879999 108.856H46.832L44.912 114.488L0.879999 108.856ZM56.432 92.472C63.6 94.4347 70.128 95.416 76.016 95.416C81.9893 95.416 86.8533 95.16 90.608 94.648L91.632 88.248L81.008 87.224C72.9013 86.456 67.1413 84.6213 63.728 81.72C60.4 78.8187 58.736 74.7227 58.736 69.432C58.736 67.128 58.992 64.568 59.504 61.752C61.4667 50.8293 65.0507 43.32 70.256 39.224C75.4613 35.128 83.44 33.08 94.192 33.08C105.029 33.08 114.587 34.1467 122.864 36.28L116.208 56.76C108.784 55.48 102.811 54.84 98.288 54.84C93.8507 54.84 90.0107 55.0533 86.768 55.48L85.744 61.752L94.32 62.648C103.024 63.5867 109.211 65.6773 112.88 68.92C116.549 72.0773 118.384 76.344 118.384 81.72C118.384 87.1813 117.232 92.8133 114.928 98.616C113.648 101.603 112.283 104.12 110.832 106.168C109.467 108.131 107.675 109.837 105.456 111.288C103.323 112.653 101.36 113.72 99.568 114.488C97.776 115.171 95.472 115.683 92.656 116.024C88.7307 116.621 83.8667 116.92 78.064 116.92C67.4827 116.92 57.8827 115.811 49.264 113.592L56.432 92.472Z"
        fill="#075F72" />
</svg>