<svg width="679" height="584" viewBox="0 0 679 584" fill="none" xmlns="http://www.w3.org/2000/svg">
    <g clip-path="url(#clip0_203_119)">
        <path
            d="M135.412 264.004C134.957 264.004 134.521 263.825 134.2 263.508C133.878 263.191 133.698 262.761 133.698 262.312V203.105C133.698 202.656 133.878 202.226 134.2 201.909C134.521 201.591 134.957 201.413 135.412 201.413C135.866 201.413 136.302 201.591 136.624 201.909C136.945 202.226 137.126 202.656 137.126 203.105V262.312C137.126 262.761 136.945 263.191 136.624 263.508C136.302 263.825 135.866 264.004 135.412 264.004Z"
            fill="#BEBEBE" />
        <path
            d="M148.267 272.83C147.813 272.83 147.377 272.654 147.055 272.341C146.734 272.027 146.553 271.602 146.553 271.159V194.258C146.553 193.815 146.734 193.389 147.055 193.076C147.377 192.762 147.813 192.586 148.267 192.586C148.722 192.586 149.158 192.762 149.479 193.076C149.801 193.389 149.981 193.815 149.981 194.258V271.159C149.981 271.602 149.801 272.027 149.479 272.341C149.158 272.654 148.722 272.83 148.267 272.83Z"
            fill="#BEBEBE" />
        <path
            d="M160.266 278.448C159.811 278.448 159.375 278.272 159.054 277.96C158.732 277.648 158.552 277.225 158.552 276.784V188.632C158.552 188.191 158.732 187.768 159.054 187.456C159.375 187.144 159.811 186.969 160.266 186.969C160.72 186.969 161.156 187.144 161.478 187.456C161.799 187.768 161.98 188.191 161.98 188.632V276.784C161.98 277.225 161.799 277.648 161.478 277.96C161.156 278.272 160.72 278.448 160.266 278.448Z"
            fill="#BEBEBE" />
        <path
            d="M173.121 293.694C172.667 293.694 172.231 293.518 171.909 293.205C171.588 292.891 171.407 292.466 171.407 292.023V173.394C171.407 172.95 171.588 172.525 171.909 172.212C172.231 171.899 172.667 171.723 173.121 171.723C173.576 171.723 174.012 171.899 174.333 172.212C174.655 172.525 174.835 172.95 174.835 173.394V292.023C174.835 292.466 174.655 292.891 174.333 293.205C174.012 293.518 173.576 293.694 173.121 293.694Z"
            fill="#BEBEBE" />
        <path
            d="M185.548 316.162C184.98 316.162 184.435 315.986 184.033 315.673C183.631 315.36 183.406 314.936 183.406 314.493V150.923C183.406 150.481 183.631 150.056 184.033 149.743C184.435 149.43 184.98 149.254 185.548 149.254C186.117 149.254 186.662 149.43 187.063 149.743C187.465 150.056 187.691 150.481 187.691 150.923V314.493C187.691 314.936 187.465 315.36 187.063 315.673C186.662 315.986 186.117 316.162 185.548 316.162Z"
            fill="#BEBEBE" />
        <path
            d="M197.975 293.694C197.521 293.694 197.085 293.518 196.763 293.205C196.442 292.891 196.261 292.466 196.261 292.023V173.394C196.261 172.95 196.442 172.525 196.763 172.212C197.085 171.899 197.521 171.723 197.975 171.723C198.43 171.723 198.866 171.899 199.187 172.212C199.509 172.525 199.689 172.95 199.689 173.394V292.023C199.689 292.466 199.509 292.891 199.187 293.205C198.866 293.518 198.43 293.694 197.975 293.694Z"
            fill="#BEBEBE" />
        <path
            d="M210.831 304.928C210.376 304.928 209.94 304.751 209.619 304.436C209.297 304.121 209.117 303.694 209.117 303.249V162.168C209.117 161.723 209.297 161.295 209.619 160.98C209.94 160.665 210.376 160.489 210.831 160.489C211.285 160.489 211.721 160.665 212.043 160.98C212.364 161.295 212.545 161.723 212.545 162.168V303.249C212.545 303.694 212.364 304.121 212.043 304.436C211.721 304.751 211.285 304.928 210.831 304.928Z"
            fill="#BEBEBE" />
        <path
            d="M222.829 276.04C222.375 276.04 221.939 275.865 221.617 275.552C221.296 275.24 221.115 274.816 221.115 274.374V191.043C221.115 190.601 221.296 190.177 221.617 189.865C221.939 189.552 222.375 189.376 222.829 189.376C223.284 189.376 223.72 189.552 224.041 189.865C224.363 190.177 224.543 190.601 224.543 191.043V274.374C224.543 274.816 224.363 275.24 224.041 275.552C223.72 275.865 223.284 276.04 222.829 276.04Z"
            fill="#BEBEBE" />
        <path
            d="M235.685 283.262C235.23 283.262 234.794 283.085 234.473 282.769C234.151 282.453 233.971 282.024 233.971 281.577V183.84C233.971 183.393 234.151 182.964 234.473 182.648C234.794 182.332 235.23 182.154 235.685 182.154C236.139 182.154 236.575 182.332 236.897 182.648C237.218 182.964 237.399 183.393 237.399 183.84V281.577C237.399 282.024 237.218 282.453 236.897 282.769C236.575 283.085 236.139 283.262 235.685 283.262Z"
            fill="#BEBEBE" />
        <path
            d="M247.683 264.004C247.229 264.004 246.793 263.825 246.471 263.508C246.15 263.191 245.969 262.761 245.969 262.312V203.105C245.969 202.656 246.15 202.226 246.471 201.909C246.793 201.591 247.229 201.413 247.683 201.413C248.138 201.413 248.574 201.591 248.895 201.909C249.217 202.226 249.397 202.656 249.397 203.105V262.312C249.397 262.761 249.217 263.191 248.895 263.508C248.574 263.825 248.138 264.004 247.683 264.004Z"
            fill="#BEBEBE" />
        <path
            d="M258.825 264.004C258.37 264.004 257.934 263.825 257.613 263.508C257.291 263.191 257.111 262.761 257.111 262.312V203.105C257.111 202.656 257.291 202.226 257.613 201.909C257.934 201.591 258.37 201.413 258.825 201.413C259.28 201.413 259.715 201.591 260.037 201.909C260.358 202.226 260.539 202.656 260.539 203.105V262.312C260.539 262.761 260.358 263.191 260.037 263.508C259.715 263.825 259.28 264.004 258.825 264.004Z"
            fill="#BEBEBE" />
        <path
            d="M271.252 272.83C270.684 272.83 270.139 272.654 269.737 272.341C269.335 272.027 269.109 271.602 269.109 271.159V194.258C269.109 193.815 269.335 193.389 269.737 193.076C270.139 192.762 270.684 192.586 271.252 192.586C271.82 192.586 272.365 192.762 272.767 193.076C273.169 193.389 273.395 193.815 273.395 194.258V271.159C273.395 271.602 273.169 272.027 272.767 272.341C272.365 272.654 271.82 272.83 271.252 272.83Z"
            fill="#BEBEBE" />
        <path
            d="M283.679 278.448C283.224 278.448 282.788 278.272 282.467 277.96C282.145 277.648 281.965 277.225 281.965 276.784V188.632C281.965 188.191 282.145 187.768 282.467 187.456C282.788 187.144 283.224 186.969 283.679 186.969C284.134 186.969 284.569 187.144 284.891 187.456C285.212 187.768 285.393 188.191 285.393 188.632V276.784C285.393 277.225 285.212 277.648 284.891 277.96C284.569 278.272 284.134 278.448 283.679 278.448Z"
            fill="#BEBEBE" />
        <path
            d="M296.534 293.694C296.08 293.694 295.644 293.518 295.322 293.205C295.001 292.891 294.82 292.466 294.82 292.023V173.394C294.82 172.95 295.001 172.525 295.322 172.212C295.644 171.899 296.08 171.723 296.534 171.723C296.989 171.723 297.425 171.899 297.746 172.212C298.068 172.525 298.248 172.95 298.248 173.394V292.023C298.248 292.466 298.068 292.891 297.746 293.205C297.425 293.518 296.989 293.694 296.534 293.694Z"
            fill="#BEBEBE" />
        <path
            d="M308.533 343.445C308.078 343.445 307.642 343.269 307.321 342.954C306.999 342.639 306.819 342.213 306.819 341.768V123.649C306.819 123.204 306.999 122.777 307.321 122.463C307.642 122.148 308.078 121.971 308.533 121.971C308.988 121.971 309.424 122.148 309.745 122.463C310.066 122.777 310.247 123.204 310.247 123.649V341.768C310.247 342.213 310.066 342.639 309.745 342.954C309.424 343.269 308.988 343.445 308.533 343.445Z"
            fill="#BEBEBE" />
        <path
            d="M321.388 293.694C320.934 293.694 320.498 293.518 320.176 293.205C319.855 292.891 319.674 292.466 319.674 292.023V173.394C319.674 172.95 319.855 172.525 320.176 172.212C320.498 171.899 320.934 171.723 321.388 171.723C321.843 171.723 322.279 171.899 322.6 172.212C322.922 172.525 323.102 172.95 323.102 173.394V292.023C323.102 292.466 322.922 292.891 322.6 293.205C322.279 293.518 321.843 293.694 321.388 293.694Z"
            fill="#BEBEBE" />
        <path
            d="M333.815 304.928C333.247 304.928 332.702 304.751 332.3 304.436C331.899 304.121 331.673 303.694 331.673 303.249V162.168C331.673 161.723 331.899 161.295 332.3 160.98C332.702 160.665 333.247 160.489 333.815 160.489C334.384 160.489 334.929 160.665 335.33 160.98C335.732 161.295 335.958 161.723 335.958 162.168V303.249C335.958 303.694 335.732 304.121 335.33 304.436C334.929 304.751 334.384 304.928 333.815 304.928Z"
            fill="#BEBEBE" />
        <path
            d="M346.243 276.04C345.788 276.04 345.352 275.865 345.031 275.552C344.709 275.24 344.529 274.816 344.529 274.374V191.043C344.529 190.601 344.709 190.177 345.031 189.865C345.352 189.552 345.788 189.376 346.243 189.376C346.697 189.376 347.133 189.552 347.455 189.865C347.776 190.177 347.957 190.601 347.957 191.043V274.374C347.957 274.816 347.776 275.24 347.455 275.552C347.133 275.865 346.697 276.04 346.243 276.04Z"
            fill="#BEBEBE" />
        <path
            d="M359.098 283.262C358.644 283.262 358.208 283.085 357.886 282.769C357.565 282.453 357.384 282.024 357.384 281.577V183.84C357.384 183.393 357.565 182.964 357.886 182.648C358.208 182.332 358.644 182.154 359.098 182.154C359.553 182.154 359.989 182.332 360.31 182.648C360.632 182.964 360.812 183.393 360.812 183.84V281.577C360.812 282.024 360.632 282.453 360.31 282.769C359.989 283.085 359.553 283.262 359.098 283.262Z"
            fill="#BEBEBE" />
        <path
            d="M371.097 264.004C370.642 264.004 370.206 263.825 369.885 263.508C369.563 263.191 369.383 262.761 369.383 262.312V203.105C369.383 202.656 369.563 202.226 369.885 201.909C370.206 201.591 370.642 201.413 371.097 201.413C371.551 201.413 371.987 201.591 372.309 201.909C372.63 202.226 372.811 202.656 372.811 203.105V262.312C372.811 262.761 372.63 263.191 372.309 263.508C371.987 263.825 371.551 264.004 371.097 264.004Z"
            fill="#BEBEBE" />
        <path
            d="M382.238 264.004C381.783 264.004 381.347 263.825 381.026 263.508C380.704 263.191 380.524 262.761 380.524 262.312V203.105C380.524 202.656 380.704 202.226 381.026 201.909C381.347 201.591 381.783 201.413 382.238 201.413C382.693 201.413 383.129 201.591 383.45 201.909C383.771 202.226 383.952 202.656 383.952 203.105V262.312C383.952 262.761 383.771 263.191 383.45 263.508C383.129 263.825 382.693 264.004 382.238 264.004Z"
            fill="#BEBEBE" />
        <path
            d="M394.237 272.83C393.782 272.83 393.346 272.654 393.024 272.341C392.703 272.027 392.522 271.602 392.522 271.159V194.258C392.522 193.815 392.703 193.389 393.024 193.076C393.346 192.762 393.782 192.586 394.237 192.586C394.691 192.586 395.127 192.762 395.449 193.076C395.77 193.389 395.951 193.815 395.951 194.258V271.159C395.951 271.602 395.77 272.027 395.449 272.341C395.127 272.654 394.691 272.83 394.237 272.83Z"
            fill="#BEBEBE" />
        <path
            d="M407.092 278.448C406.637 278.448 406.201 278.272 405.88 277.96C405.558 277.648 405.378 277.225 405.378 276.784V188.632C405.378 188.191 405.558 187.768 405.88 187.456C406.201 187.144 406.637 186.969 407.092 186.969C407.547 186.969 407.983 187.144 408.304 187.456C408.625 187.768 408.806 188.191 408.806 188.632V276.784C408.806 277.225 408.625 277.648 408.304 277.96C407.983 278.272 407.547 278.448 407.092 278.448Z"
            fill="#BEBEBE" />
        <path
            d="M419.519 293.694C418.951 293.694 418.406 293.518 418.004 293.205C417.602 292.891 417.376 292.466 417.376 292.023V173.394C417.376 172.95 417.602 172.525 418.004 172.212C418.406 171.899 418.951 171.723 419.519 171.723C420.087 171.723 420.632 171.899 421.034 172.212C421.436 172.525 421.662 172.95 421.662 173.394V292.023C421.662 292.466 421.436 292.891 421.034 293.205C420.632 293.518 420.087 293.694 419.519 293.694Z"
            fill="#BEBEBE" />
        <path
            d="M431.946 316.162C431.491 316.162 431.055 315.986 430.734 315.673C430.412 315.36 430.232 314.936 430.232 314.493V150.923C430.232 150.481 430.412 150.056 430.734 149.743C431.055 149.43 431.491 149.254 431.946 149.254C432.401 149.254 432.837 149.43 433.158 149.743C433.479 150.056 433.66 150.481 433.66 150.923V314.493C433.66 314.936 433.479 315.36 433.158 315.673C432.837 315.986 432.401 316.162 431.946 316.162Z"
            fill="#BEBEBE" />
        <path
            d="M440.945 389.987C440.377 389.987 439.832 389.811 439.43 389.498C439.028 389.185 438.802 388.761 438.802 388.318V77.0983C438.802 76.6558 439.028 76.2313 439.43 75.9183C439.832 75.6054 440.377 75.4296 440.945 75.4296C441.513 75.4296 442.058 75.6054 442.46 75.9183C442.862 76.2313 443.088 76.6558 443.088 77.0983V388.318C443.088 388.761 442.862 389.185 442.46 389.498C442.058 389.811 441.513 389.987 440.945 389.987Z"
            fill="#0399FC" />
        <path
            d="M444.802 293.694C444.347 293.694 443.911 293.518 443.59 293.205C443.268 292.891 443.088 292.466 443.088 292.023V173.394C443.088 172.95 443.268 172.525 443.59 172.212C443.911 171.899 444.347 171.723 444.802 171.723C445.256 171.723 445.692 171.899 446.014 172.212C446.335 172.525 446.516 172.95 446.516 173.394V292.023C446.516 292.466 446.335 292.891 446.014 293.205C445.692 293.518 445.256 293.694 444.802 293.694Z"
            fill="#BEBEBE" />
        <path
            d="M456.8 304.928C456.346 304.928 455.91 304.751 455.588 304.436C455.267 304.121 455.086 303.694 455.086 303.249V162.168C455.086 161.723 455.267 161.295 455.588 160.98C455.91 160.665 456.346 160.489 456.8 160.489C457.255 160.489 457.691 160.665 458.012 160.98C458.334 161.295 458.514 161.723 458.514 162.168V303.249C458.514 303.694 458.334 304.121 458.012 304.436C457.691 304.751 457.255 304.928 456.8 304.928Z"
            fill="#BEBEBE" />
        <path
            d="M469.656 276.04C469.201 276.04 468.765 275.865 468.444 275.552C468.122 275.24 467.942 274.816 467.942 274.374V191.043C467.942 190.601 468.122 190.177 468.444 189.865C468.765 189.552 469.201 189.376 469.656 189.376C470.11 189.376 470.546 189.552 470.868 189.865C471.189 190.177 471.37 190.601 471.37 191.043V274.374C471.37 274.816 471.189 275.24 470.868 275.552C470.546 275.865 470.11 276.04 469.656 276.04Z"
            fill="#BEBEBE" />
        <path
            d="M482.083 283.262C481.515 283.262 480.97 283.085 480.568 282.769C480.166 282.453 479.94 282.024 479.94 281.577V183.84C479.94 183.393 480.166 182.964 480.568 182.648C480.97 182.332 481.515 182.154 482.083 182.154C482.651 182.154 483.196 182.332 483.598 182.648C484 182.964 484.225 183.393 484.225 183.84V281.577C484.225 282.024 484 282.453 483.598 282.769C483.196 283.085 482.651 283.262 482.083 283.262Z"
            fill="#BEBEBE" />
        <path
            d="M494.51 264.004C494.055 264.004 493.619 263.825 493.298 263.508C492.976 263.191 492.796 262.761 492.796 262.312V203.105C492.796 202.656 492.976 202.226 493.298 201.909C493.619 201.591 494.055 201.413 494.51 201.413C494.964 201.413 495.4 201.591 495.722 201.909C496.043 202.226 496.224 202.656 496.224 203.105V262.312C496.224 262.761 496.043 263.191 495.722 263.508C495.4 263.825 494.964 264.004 494.51 264.004Z"
            fill="#BEBEBE" />
        <path
            d="M505.651 264.004C505.197 264.004 504.761 263.825 504.439 263.508C504.118 263.191 503.937 262.761 503.937 262.312V203.105C503.937 202.656 504.118 202.226 504.439 201.909C504.761 201.591 505.197 201.413 505.651 201.413C506.106 201.413 506.542 201.591 506.863 201.909C507.185 202.226 507.365 202.656 507.365 203.105V262.312C507.365 262.761 507.185 263.191 506.863 263.508C506.542 263.825 506.106 264.004 505.651 264.004Z"
            fill="#BEBEBE" />
        <path
            d="M517.65 272.83C517.195 272.83 516.759 272.654 516.438 272.341C516.116 272.027 515.936 271.602 515.936 271.159V194.258C515.936 193.815 516.116 193.389 516.438 193.076C516.759 192.762 517.195 192.586 517.65 192.586C518.104 192.586 518.54 192.762 518.862 193.076C519.183 193.389 519.364 193.815 519.364 194.258V271.159C519.364 271.602 519.183 272.027 518.862 272.341C518.54 272.654 518.104 272.83 517.65 272.83Z"
            fill="#BEBEBE" />
        <path
            d="M530.505 278.448C530.051 278.448 529.615 278.272 529.293 277.96C528.972 277.648 528.791 277.225 528.791 276.784V188.632C528.791 188.191 528.972 187.768 529.293 187.456C529.615 187.144 530.051 186.969 530.505 186.969C530.96 186.969 531.396 187.144 531.717 187.456C532.039 187.768 532.219 188.191 532.219 188.632V276.784C532.219 277.225 532.039 277.648 531.717 277.96C531.396 278.272 530.96 278.448 530.505 278.448Z"
            fill="#BEBEBE" />
        <path
            d="M542.504 293.694C542.049 293.694 541.613 293.518 541.292 293.205C540.97 292.891 540.79 292.466 540.79 292.023V173.394C540.79 172.95 540.97 172.525 541.292 172.212C541.613 171.899 542.049 171.723 542.504 171.723C542.958 171.723 543.394 171.899 543.716 172.212C544.037 172.525 544.218 172.95 544.218 173.394V292.023C544.218 292.466 544.037 292.891 543.716 293.205C543.394 293.518 542.958 293.694 542.504 293.694Z"
            fill="#BEBEBE" />
        <path
            d="M555.359 343.445C554.905 343.445 554.469 343.269 554.147 342.954C553.826 342.639 553.645 342.213 553.645 341.768V123.649C553.645 123.204 553.826 122.777 554.147 122.463C554.469 122.148 554.905 121.971 555.359 121.971C555.814 121.971 556.25 122.148 556.571 122.463C556.893 122.777 557.073 123.204 557.073 123.649V341.768C557.073 342.213 556.893 342.639 556.571 342.954C556.25 343.269 555.814 343.445 555.359 343.445Z"
            fill="#BEBEBE" />
        <path
            d="M567.786 293.694C567.218 293.694 566.673 293.518 566.271 293.205C565.869 292.891 565.644 292.466 565.644 292.023V173.394C565.644 172.95 565.869 172.525 566.271 172.212C566.673 171.899 567.218 171.723 567.786 171.723C568.355 171.723 568.9 171.899 569.301 172.212C569.703 172.525 569.929 172.95 569.929 173.394V292.023C569.929 292.466 569.703 292.891 569.301 293.205C568.9 293.518 568.355 293.694 567.786 293.694Z"
            fill="#BEBEBE" />
        <path
            d="M580.213 304.928C579.759 304.928 579.323 304.751 579.001 304.436C578.68 304.121 578.499 303.694 578.499 303.249V162.168C578.499 161.723 578.68 161.295 579.001 160.98C579.323 160.665 579.759 160.489 580.213 160.489C580.668 160.489 581.104 160.665 581.425 160.98C581.747 161.295 581.927 161.723 581.927 162.168V303.249C581.927 303.694 581.747 304.121 581.425 304.436C581.104 304.751 580.668 304.928 580.213 304.928Z"
            fill="#BEBEBE" />
        <path
            d="M593.069 276.04C592.614 276.04 592.178 275.865 591.857 275.552C591.535 275.24 591.355 274.816 591.355 274.374V191.043C591.355 190.601 591.535 190.177 591.857 189.865C592.178 189.552 592.614 189.376 593.069 189.376C593.523 189.376 593.959 189.552 594.281 189.865C594.602 190.177 594.783 190.601 594.783 191.043V274.374C594.783 274.816 594.602 275.24 594.281 275.552C593.959 275.865 593.523 276.04 593.069 276.04Z"
            fill="#BEBEBE" />
        <path
            d="M605.067 283.262C604.613 283.262 604.177 283.085 603.855 282.769C603.534 282.453 603.353 282.024 603.353 281.577V183.84C603.353 183.393 603.534 182.964 603.855 182.648C604.177 182.332 604.613 182.154 605.067 182.154C605.522 182.154 605.958 182.332 606.279 182.648C606.601 182.964 606.781 183.393 606.781 183.84V281.577C606.781 282.024 606.601 282.453 606.279 282.769C605.958 283.085 605.522 283.262 605.067 283.262Z"
            fill="#BEBEBE" />
        <path
            d="M617.923 264.004C617.468 264.004 617.033 263.825 616.711 263.508C616.39 263.191 616.209 262.761 616.209 262.312V203.105C616.209 202.656 616.39 202.226 616.711 201.909C617.033 201.591 617.468 201.413 617.923 201.413C618.378 201.413 618.814 201.591 619.135 201.909C619.457 202.226 619.637 202.656 619.637 203.105V262.312C619.637 262.761 619.457 263.191 619.135 263.508C618.814 263.825 618.378 264.004 617.923 264.004Z"
            fill="#BEBEBE" />
        <path
            d="M533.517 434.924H219.812C219.248 434.922 218.707 434.71 218.309 434.334C217.911 433.958 217.687 433.449 217.687 432.918C217.687 432.387 217.911 431.877 218.309 431.501C218.707 431.125 219.248 430.913 219.812 430.912H533.517C534.082 430.912 534.624 431.123 535.023 431.499C535.423 431.875 535.647 432.386 535.647 432.918C535.647 433.45 535.423 433.96 535.023 434.336C534.624 434.712 534.082 434.924 533.517 434.924V434.924Z"
            fill="#CCCCCC" />
        <path
            d="M533.523 33.7026H219.812C219.248 33.701 218.707 33.489 218.309 33.113C217.911 32.7369 217.687 32.2275 217.687 31.6965C217.687 31.1654 217.911 30.656 218.309 30.28C218.707 29.9039 219.248 29.6919 219.812 29.6904H533.523C534.087 29.6919 534.627 29.9039 535.025 30.28C535.424 30.656 535.647 31.1654 535.647 31.6965C535.647 32.2275 535.424 32.7369 535.025 33.113C534.627 33.489 534.087 33.701 533.523 33.7026V33.7026Z"
            fill="#CCCCCC" />
        <path
            d="M44.1677 135.496C47.9208 135.496 50.9633 132.596 50.9633 129.019C50.9633 125.442 47.9208 122.543 44.1677 122.543C40.4146 122.543 37.3721 125.442 37.3721 129.019C37.3721 132.596 40.4146 135.496 44.1677 135.496Z"
            fill="#70706F" />
        <path d="M360.918 129.38H62.666V127.94H362.43V202.062H360.918V129.38Z" fill="#70706F" />
        <path
            d="M24.5356 129.019C24.5356 125.319 25.687 121.701 27.8442 118.624C30.0014 115.547 33.0674 113.149 36.6547 111.733C40.2419 110.317 44.1892 109.946 47.9974 110.668C51.8056 111.39 55.3036 113.172 58.0492 115.789C60.7948 118.406 62.6645 121.74 63.422 125.369C64.1795 128.999 63.7908 132.761 62.3049 136.18C60.819 139.599 58.3027 142.521 55.0743 144.577C51.8459 146.633 48.0503 147.73 44.1675 147.73C41.5894 147.73 39.0365 147.246 36.6547 146.306C34.2728 145.366 32.1087 143.987 30.2857 142.25C28.4627 140.512 27.0166 138.45 26.03 136.18C25.0434 133.91 24.5356 131.476 24.5356 129.019V129.019ZM44.1675 111.748C40.5833 111.748 37.0797 112.761 34.0996 114.659C31.1195 116.557 28.7968 119.254 27.4252 122.41C26.0536 125.566 25.6948 129.039 26.394 132.389C27.0932 135.739 28.8191 138.817 31.3535 141.232C33.8878 143.648 37.1168 145.292 40.6321 145.959C44.1473 146.625 47.791 146.283 51.1023 144.976C54.4136 143.669 57.2438 141.455 59.235 138.615C61.2263 135.775 62.2891 132.435 62.2891 129.019C62.2836 124.44 60.3726 120.05 56.9753 116.812C53.578 113.575 48.9719 111.753 44.1675 111.748V111.748Z"
            fill="#70706F" />
        <path
            d="M89.4716 321.883C93.2248 321.883 96.2673 318.983 96.2673 315.406C96.2673 311.829 93.2248 308.93 89.4716 308.93C85.7185 308.93 82.676 311.829 82.676 315.406C82.676 318.983 85.7185 321.883 89.4716 321.883Z"
            fill="#70706F" />
        <path
            d="M69.8401 315.406C69.8401 311.706 70.9915 308.088 73.1486 305.011C75.3058 301.934 78.3719 299.536 81.9591 298.12C85.5463 296.704 89.4936 296.333 93.3018 297.055C97.11 297.777 100.608 299.559 103.354 302.176C106.099 304.793 107.969 308.127 108.726 311.756C109.484 315.386 109.095 319.148 107.609 322.567C106.123 325.986 103.607 328.908 100.379 330.964C97.1503 333.02 93.3546 334.117 89.4718 334.117C84.2652 334.117 79.2718 332.146 75.5901 328.637C71.9084 325.128 69.8401 320.369 69.8401 315.406V315.406ZM89.4718 298.135C85.8877 298.135 82.3841 299.148 79.404 301.046C76.4239 302.944 74.1012 305.641 72.7296 308.797C71.358 311.953 70.9992 315.426 71.6984 318.776C72.3976 322.126 74.1235 325.204 76.6579 327.619C79.1922 330.035 82.4212 331.679 85.9365 332.346C89.4517 333.012 93.0954 332.67 96.4067 331.363C99.718 330.056 102.548 327.842 104.539 325.002C106.531 322.162 107.593 318.822 107.593 315.406C107.588 310.827 105.677 306.437 102.28 303.199C98.8824 299.962 94.2763 298.14 89.4718 298.135Z"
            fill="#70706F" />
        <path
            d="M361.296 206.954C365.049 206.954 368.092 204.054 368.092 200.477C368.092 196.9 365.049 194 361.296 194C357.543 194 354.501 196.9 354.501 200.477C354.501 204.054 357.543 206.954 361.296 206.954Z"
            fill="#70706F" />
        <path
            d="M679.304 165.721C683.058 165.721 686.1 162.821 686.1 159.244C686.1 155.667 683.058 152.768 679.304 152.768C675.551 152.768 672.509 155.667 672.509 159.244C672.509 162.821 675.551 165.721 679.304 165.721Z"
            fill="#70706F" />
        <path
            d="M659.673 159.244C659.673 155.544 660.824 151.926 662.981 148.849C665.139 145.772 668.205 143.374 671.792 141.958C675.379 140.542 679.326 140.171 683.135 140.893C686.943 141.615 690.441 143.397 693.186 146.014C695.932 148.631 697.802 151.965 698.559 155.594C699.317 159.224 698.928 162.986 697.442 166.405C695.956 169.823 693.44 172.746 690.211 174.802C686.983 176.858 683.188 177.955 679.305 177.955C676.727 177.955 674.174 177.471 671.792 176.531C669.41 175.59 667.246 174.212 665.423 172.475C663.6 170.737 662.154 168.675 661.167 166.405C660.181 164.134 659.673 161.701 659.673 159.244V159.244ZM679.305 141.973C674.5 141.978 669.894 143.8 666.497 147.037C663.099 150.275 661.189 154.665 661.183 159.244V159.244C661.183 162.66 662.246 165.999 664.237 168.84C666.228 171.68 669.059 173.894 672.37 175.201C675.681 176.508 679.325 176.85 682.84 176.184C686.355 175.517 689.584 173.872 692.119 171.457C694.653 169.042 696.379 165.964 697.078 162.614C697.777 159.263 697.419 155.791 696.047 152.635C694.675 149.479 692.353 146.781 689.373 144.884C686.392 142.986 682.889 141.973 679.305 141.973V141.973Z"
            fill="#70706F" />
        <path d="M467.885 161.414L660.416 158.525L660.439 159.963L469.395 162.831V235.526H467.885V161.414Z"
            fill="#70706F" />
        <path d="M108.349 314.687H323.543V242.003H325.053V316.125H108.349V314.687Z" fill="#70706F" />
        <path
            d="M468.64 242.003C472.393 242.003 475.436 239.103 475.436 235.526C475.436 231.949 472.393 229.049 468.64 229.049C464.887 229.049 461.845 231.949 461.845 235.526C461.845 239.103 464.887 242.003 468.64 242.003Z"
            fill="#70706F" />
        <path
            d="M324.298 247.253C328.051 247.253 331.094 244.354 331.094 240.777C331.094 237.2 328.051 234.3 324.298 234.3C320.545 234.3 317.502 237.2 317.502 240.777C317.502 244.354 320.545 247.253 324.298 247.253Z"
            fill="#70706F" />
        <path d="M85.6965 162.843H2.63892V167.88H85.6965V162.843Z" fill="#CCCCCC" />
        <path d="M85.6965 177.235H2.63892V182.273H85.6965V177.235Z" fill="#CCCCCC" />
        <path d="M85.6965 191.628H2.63892V196.666H85.6965V191.628Z" fill="#CCCCCC" />
        <path d="M131 349.23H47.9429V354.267H131V349.23Z" fill="#CCCCCC" />
        <path d="M131 363.622H47.9429V368.66H131V363.622Z" fill="#CCCCCC" />
        <path d="M131 378.015H47.9429V383.053H131V378.015Z" fill="#CCCCCC" />
        <path d="M720.833 193.787H637.776V198.825H720.833V193.787Z" fill="#CCCCCC" />
        <path d="M720.833 208.18H637.776V213.217H720.833V208.18Z" fill="#CCCCCC" />
        <path d="M720.833 222.573H637.776V227.61H720.833V222.573Z" fill="#CCCCCC" />
    </g>
    <defs>
        <clipPath id="clip0_203_119">
            <rect width="679" height="584" fill="white" />
        </clipPath>
    </defs>
</svg>